<svg width="26" height="26" viewBox="0 0 26 26" fill="none" xmlns="http://www.w3.org/2000/svg">
<path d="M12.9966 6.32974C9.30537 6.32974 6.3264 9.30876 6.3264 13C6.3264 16.6912 9.30537 19.6703 12.9966 19.6703C16.6877 19.6703 19.6667 16.6912 19.6667 13C19.6667 9.30876 16.6877 6.32974 12.9966 6.32974ZM12.9966 17.3352C10.6095 17.3352 8.66144 15.3871 8.66144 13C8.66144 10.6129 10.6095 8.66482 12.9966 8.66482C15.3836 8.66482 17.3317 10.6129 17.3317 13C17.3317 15.3871 15.3836 17.3352 12.9966 17.3352ZM19.9399 4.50201C19.0781 4.50201 18.3821 5.19798 18.3821 6.05981C18.3821 6.92164 19.0781 7.61761 19.9399 7.61761C20.8017 7.61761 21.4977 6.9249 21.4977 6.05981C21.4979 5.85517 21.4578 5.65248 21.3796 5.46336C21.3014 5.27424 21.1867 5.10241 21.042 4.95771C20.8973 4.813 20.7255 4.69826 20.5363 4.62007C20.3472 4.54187 20.1445 4.50175 19.9399 4.50201V4.50201ZM25.9986 13C25.9986 11.2048 26.0149 9.42584 25.9141 7.63387C25.8133 5.55247 25.3385 3.70522 23.8165 2.18319C22.2912 0.657911 20.4472 0.186343 18.3659 0.0855244C16.5707 -0.0152937 14.7917 0.000967347 12.9998 0.000967347C11.2046 0.000967347 9.4257 -0.0152937 7.63376 0.0855244C5.55239 0.186343 3.70517 0.661163 2.18316 2.18319C0.657901 3.70847 0.18634 5.55247 0.0855232 7.63387C-0.0152935 9.42909 0.000967333 11.208 0.000967333 13C0.000967333 14.792 -0.0152935 16.5742 0.0855232 18.3661C0.18634 20.4475 0.661154 22.2948 2.18316 23.8168C3.70842 25.3421 5.55239 25.8137 7.63376 25.9145C9.42895 26.0153 11.2079 25.999 12.9998 25.999C14.795 25.999 16.5739 26.0153 18.3659 25.9145C20.4472 25.8137 22.2945 25.3388 23.8165 23.8168C25.3417 22.2915 25.8133 20.4475 25.9141 18.3661C26.0182 16.5742 25.9986 14.7952 25.9986 13V13ZM23.1368 20.6687C22.8994 21.2606 22.6132 21.7029 22.1546 22.1582C21.6961 22.6167 21.257 22.9029 20.6651 23.1404C18.9545 23.8201 14.8926 23.6672 12.9966 23.6672C11.1006 23.6672 7.03537 23.8201 5.32474 23.1436C4.73284 22.9062 4.29055 22.62 3.83525 22.1614C3.3767 21.7029 3.09051 21.2638 2.8531 20.6719C2.17666 18.958 2.32951 14.896 2.32951 13C2.32951 11.104 2.17666 7.03872 2.8531 5.32807C3.09051 4.73617 3.3767 4.29387 3.83525 3.83856C4.2938 3.38325 4.73284 3.09381 5.32474 2.8564C7.03537 2.17994 11.1006 2.33279 12.9966 2.33279C14.8926 2.33279 18.9577 2.17994 20.6684 2.8564C21.2603 3.09381 21.7026 3.38 22.1579 3.83856C22.6164 4.29712 22.9026 4.73617 23.14 5.32807C23.8165 7.03872 23.6636 11.104 23.6636 13C23.6636 14.896 23.8165 18.958 23.1368 20.6687Z" fill="black"/>
</svg>
