<svg width="28" height="16" viewBox="0 0 28 16" fill="none" xmlns="http://www.w3.org/2000/svg">
<path d="M26.772 1.13994C26.9586 0.519944 26.772 0.0652771 25.8893 0.0652771H22.9653C22.2213 0.0652771 21.8813 0.458611 21.6946 0.890611C21.6946 0.890611 20.208 4.51594 18.1013 6.86661C17.4213 7.55061 17.1106 7.76661 16.74 7.76661C16.5546 7.76661 16.2853 7.55061 16.2853 6.93061V1.13994C16.2853 0.395944 16.0706 0.0652771 15.4506 0.0652771H10.856C10.392 0.0652771 10.112 0.409277 10.112 0.737277C10.112 1.44128 11.1653 1.60394 11.2733 3.58794V7.89194C11.2733 8.83461 11.104 9.00661 10.7306 9.00661C9.73996 9.00661 7.32929 5.36794 5.89863 1.20261C5.61996 0.393277 5.33863 0.066611 4.59196 0.066611H1.66929C0.833293 0.066611 0.666626 0.459944 0.666626 0.891944C0.666626 1.66794 1.65729 5.50794 5.28129 10.5866C7.69729 14.0546 11.0986 15.9346 14.1973 15.9346C16.0546 15.9346 16.284 15.5173 16.284 14.7973V12.1759C16.284 11.3413 16.4613 11.1733 17.0493 11.1733C17.4813 11.1733 18.2253 11.3919 19.96 13.0626C21.9413 15.0439 22.2693 15.9333 23.3826 15.9333H26.3053C27.14 15.9333 27.5573 15.5159 27.3173 14.6919C27.0546 13.8719 26.108 12.6786 24.852 11.2666C24.1693 10.4613 23.1493 9.59461 22.8386 9.16128C22.4053 8.60261 22.5306 8.35594 22.8386 7.85994C22.84 7.86128 26.4013 2.84528 26.772 1.13994V1.13994Z" fill="black"/>
</svg>
