<svg width="327" height="125" viewBox="0 0 327 125" fill="none" xmlns="http://www.w3.org/2000/svg">
<g filter="url(#filter0_d)">
<path d="M104 72.5C101.067 72.5 98.55 72.1 96.45 71.3C94.3833 70.5 92.8167 69.4333 91.75 68.1C90.7167 66.7667 90.2 65.2833 90.2 63.65C90.2 63.3833 90.2333 62.9833 90.3 62.45C90.3667 62.15 90.5 61.9 90.7 61.7C90.9333 61.5 91.2 61.4 91.5 61.4H97.9C98.3 61.4 98.6 61.4667 98.8 61.6C99.0333 61.7333 99.2667 61.9667 99.5 62.3C99.7333 63.1667 100.267 63.8833 101.1 64.45C101.967 65.0167 103.15 65.3 104.65 65.3C106.55 65.3 108.083 65 109.25 64.4C110.417 63.8 111.117 62.9833 111.35 61.95C111.383 61.8167 111.4 61.6167 111.4 61.35C111.4 60.5167 110.883 59.8667 109.85 59.4C108.817 58.9 106.917 58.3167 104.15 57.65C100.917 56.95 98.4667 55.9 96.8 54.5C95.1333 53.0667 94.3 51.2 94.3 48.9C94.3 48.1 94.4 47.2833 94.6 46.45C95.2667 43.35 96.9167 40.9167 99.55 39.15C102.217 37.3833 105.65 36.5 109.85 36.5C112.383 36.5 114.633 36.95 116.6 37.85C118.567 38.75 120.083 39.9 121.15 41.3C122.25 42.6667 122.8 44.0333 122.8 45.4C122.8 45.8 122.783 46.0833 122.75 46.25C122.683 46.55 122.533 46.8 122.3 47C122.1 47.2 121.85 47.3 121.55 47.3H114.85C114.117 47.3 113.617 47.0167 113.35 46.45C113.317 45.6833 112.917 45.0333 112.15 44.5C111.383 43.9667 110.383 43.7 109.15 43.7C107.683 43.7 106.467 43.9667 105.5 44.5C104.567 45.0333 103.983 45.8167 103.75 46.85C103.717 47.0167 103.7 47.2333 103.7 47.5C103.7 48.3 104.167 48.9667 105.1 49.5C106.067 50 107.75 50.5167 110.15 51.05C113.883 51.7833 116.6 52.8333 118.3 54.2C120.033 55.5667 120.9 57.3833 120.9 59.65C120.9 60.4167 120.8 61.25 120.6 62.15C119.867 65.55 118.083 68.1333 115.25 69.9C112.45 71.6333 108.7 72.5 104 72.5ZM124.205 72C123.839 72 123.555 71.8833 123.355 71.65C123.155 71.4167 123.089 71.1167 123.155 70.75L128.155 47.25C128.222 46.8833 128.405 46.5833 128.705 46.35C129.005 46.1167 129.339 46 129.705 46H135.155C135.522 46 135.805 46.1167 136.005 46.35C136.139 46.55 136.205 46.75 136.205 46.95C136.205 47.05 136.189 47.15 136.155 47.25L135.805 48.95C136.872 47.85 137.972 47 139.105 46.4C140.239 45.8 141.655 45.5 143.355 45.5C145.255 45.5 146.805 45.8833 148.005 46.65C149.239 47.3833 150.089 48.4333 150.555 49.8C152.955 46.9333 155.755 45.5 158.955 45.5C161.322 45.5 163.205 46.15 164.605 47.45C166.039 48.7167 166.755 50.6167 166.755 53.15C166.755 54.0833 166.622 55.2167 166.355 56.55L163.355 70.75C163.289 71.1167 163.105 71.4167 162.805 71.65C162.505 71.8833 162.189 72 161.855 72H156.055C155.689 72 155.405 71.8833 155.205 71.65C155.005 71.4167 154.939 71.1167 155.005 70.75L157.955 56.9C158.089 56.2667 158.155 55.65 158.155 55.05C158.155 53.15 157.222 52.2 155.355 52.2C154.255 52.2 153.239 52.5833 152.305 53.35C151.405 54.0833 150.789 55.2667 150.455 56.9L147.505 70.75C147.439 71.1167 147.255 71.4167 146.955 71.65C146.655 71.8833 146.339 72 146.005 72H140.205C139.839 72 139.555 71.8833 139.355 71.65C139.155 71.4167 139.089 71.1167 139.155 70.75L142.155 56.9C142.289 56.3333 142.355 55.7667 142.355 55.2C142.355 53.2 141.405 52.2 139.505 52.2C138.439 52.2 137.439 52.5833 136.505 53.35C135.572 54.1167 134.939 55.2833 134.605 56.85L131.605 70.75C131.539 71.1167 131.355 71.4167 131.055 71.65C130.789 71.8833 130.489 72 130.155 72H124.205ZM178.656 72.5C175.856 72.5 173.69 71.7333 172.156 70.2C170.656 68.6333 169.906 66.45 169.906 63.65C169.906 62.8833 169.99 61.9167 170.156 60.75L170.906 57.2C171.84 53.5333 173.39 50.6667 175.556 48.6C177.723 46.5333 180.49 45.5 183.856 45.5C185.756 45.5 187.24 45.7667 188.306 46.3C189.406 46.8333 190.306 47.5833 191.006 48.55L191.256 47.25C191.323 46.8833 191.506 46.5833 191.806 46.35C192.106 46.1167 192.423 46 192.756 46H198.356C198.723 46 199.006 46.1167 199.206 46.35C199.34 46.55 199.406 46.75 199.406 46.95C199.406 47.05 199.39 47.15 199.356 47.25L194.406 70.75C194.34 71.1167 194.156 71.4167 193.856 71.65C193.556 71.8833 193.24 72 192.906 72H187.256C186.89 72 186.606 71.8833 186.406 71.65C186.24 71.3833 186.19 71.0833 186.256 70.75L186.606 69.15C185.44 70.25 184.256 71.0833 183.056 71.65C181.89 72.2167 180.423 72.5 178.656 72.5ZM182.156 65.8C183.69 65.8 184.94 65.3167 185.906 64.35C186.873 63.3833 187.54 62.1667 187.906 60.7C188.24 59.4 188.506 58.15 188.706 56.95C188.773 56.65 188.806 56.2333 188.806 55.7C188.806 54.6333 188.523 53.7833 187.956 53.15C187.39 52.5167 186.506 52.2 185.306 52.2C182.606 52.2 180.74 53.95 179.706 57.45C179.406 58.4833 179.173 59.5167 179.006 60.55C178.906 61.15 178.856 61.7333 178.856 62.3C178.856 63.4 179.106 64.2667 179.606 64.9C180.106 65.5 180.956 65.8 182.156 65.8ZM201.305 72C200.938 72 200.655 71.8833 200.455 71.65C200.255 71.4167 200.188 71.1167 200.255 70.75L205.255 47.25C205.322 46.8833 205.505 46.5833 205.805 46.35C206.105 46.1167 206.438 46 206.805 46H212.555C212.922 46 213.205 46.1167 213.405 46.35C213.538 46.55 213.605 46.75 213.605 46.95C213.605 47.05 213.588 47.15 213.555 47.25L213.155 49.25C214.888 47.0833 217.388 46 220.655 46H223.455C223.788 46 224.055 46.1167 224.255 46.35C224.388 46.5167 224.455 46.7167 224.455 46.95C224.455 47.05 224.438 47.15 224.405 47.25L223.355 52.4C223.288 52.7667 223.105 53.0667 222.805 53.3C222.505 53.5333 222.172 53.65 221.805 53.65H217.005C215.638 53.65 214.488 54.0333 213.555 54.8C212.655 55.5333 212.055 56.5833 211.755 57.95L209.055 70.75C208.988 71.1167 208.805 71.4167 208.505 71.65C208.205 71.8833 207.872 72 207.505 72H201.305ZM236.458 72C230.358 72 227.308 69.7 227.308 65.1C227.308 64.1 227.424 63.1167 227.658 62.15L229.708 52.55H225.808C225.441 52.55 225.158 52.4333 224.958 52.2C224.791 51.9333 224.741 51.6333 224.808 51.3L225.658 47.25C225.724 46.8833 225.908 46.5833 226.208 46.35C226.508 46.1167 226.824 46 227.158 46H231.108L232.858 37.75C232.924 37.3833 233.108 37.0833 233.408 36.85C233.708 36.6167 234.024 36.5 234.358 36.5H240.158C240.524 36.5 240.808 36.6167 241.008 36.85C241.141 37.05 241.208 37.25 241.208 37.45C241.208 37.55 241.191 37.65 241.158 37.75L239.408 46H245.658C246.024 46 246.308 46.1167 246.508 46.35C246.641 46.5167 246.708 46.7167 246.708 46.95C246.708 47.05 246.691 47.15 246.658 47.25L245.808 51.3C245.741 51.6667 245.558 51.9667 245.258 52.2C244.958 52.4333 244.641 52.55 244.308 52.55H238.008L236.108 61.45C235.974 62.0167 235.908 62.6 235.908 63.2C235.908 63.8667 236.074 64.3667 236.408 64.7C236.741 65 237.308 65.15 238.108 65.15H242.058C242.424 65.15 242.691 65.2667 242.858 65.5C242.991 65.6667 243.058 65.8667 243.058 66.1C243.058 66.2 243.041 66.3 243.008 66.4L242.108 70.75C242.041 71.1167 241.858 71.4167 241.558 71.65C241.258 71.8833 240.941 72 240.608 72H236.458ZM247.704 72C247.337 72 247.054 71.8833 246.854 71.65C246.687 71.3833 246.637 71.0833 246.704 70.75L253.604 38.25C253.67 37.8833 253.854 37.5833 254.154 37.35C254.454 37.1167 254.77 37 255.104 37H278.104C278.47 37 278.754 37.1167 278.954 37.35C279.087 37.5167 279.154 37.7167 279.154 37.95C279.154 38.05 279.137 38.15 279.104 38.25L278.054 43.3C277.987 43.6667 277.804 43.9667 277.504 44.2C277.204 44.4333 276.887 44.55 276.554 44.55H261.104L259.554 51.9H273.954C274.32 51.9 274.604 52.0167 274.804 52.25C274.937 52.45 275.004 52.6667 275.004 52.9C275.004 53 274.987 53.1 274.954 53.2L273.904 58.2C273.837 58.5333 273.654 58.8333 273.354 59.1C273.054 59.3333 272.72 59.45 272.354 59.45H257.954L255.504 70.75C255.437 71.1167 255.254 71.4167 254.954 71.65C254.687 71.8833 254.37 72 254.004 72H247.704ZM284.313 42.25C283.946 42.25 283.663 42.1333 283.463 41.9C283.296 41.6667 283.23 41.3667 283.263 41L284.263 36.5C284.33 36.1333 284.513 35.8333 284.813 35.6C285.113 35.3667 285.43 35.25 285.763 35.25H291.763C292.13 35.25 292.413 35.3667 292.613 35.6C292.746 35.8 292.813 36 292.813 36.2C292.813 36.3 292.796 36.4 292.763 36.5L291.813 41C291.746 41.3667 291.563 41.6667 291.263 41.9C290.996 42.1333 290.68 42.25 290.313 42.25H284.313ZM278.063 72C277.696 72 277.413 71.8833 277.213 71.65C277.013 71.4167 276.946 71.1167 277.013 70.75L282.013 47.25C282.08 46.8833 282.263 46.5833 282.563 46.35C282.863 46.1167 283.196 46 283.563 46H289.463C289.796 46 290.063 46.1167 290.263 46.35C290.396 46.5167 290.463 46.7167 290.463 46.95C290.463 47.05 290.446 47.15 290.413 47.25L285.463 70.75C285.396 71.1167 285.213 71.4167 284.913 71.65C284.613 71.8833 284.296 72 283.963 72H278.063ZM290.07 72C289.77 72 289.536 71.9167 289.37 71.75C289.17 71.55 289.07 71.3 289.07 71C289.07 70.7 289.17 70.4333 289.37 70.2L300.42 58.4L295.07 47.75C295.003 47.55 294.97 47.4 294.97 47.3C294.97 46.9667 295.086 46.6667 295.32 46.4C295.586 46.1333 295.886 46 296.22 46H302.12C302.486 46 302.753 46.0833 302.92 46.25C303.12 46.3833 303.303 46.5833 303.47 46.85L306.72 53.15L312.77 46.85C313.236 46.2833 313.82 46 314.52 46H320.82C321.12 46 321.353 46.1 321.52 46.3C321.686 46.4667 321.77 46.7 321.77 47C321.77 47.3 321.653 47.5667 321.42 47.8L310.97 59.05L316.52 70.25C316.62 70.45 316.67 70.65 316.67 70.85C316.67 71.1833 316.553 71.4667 316.32 71.7C316.086 71.9 315.77 72 315.37 72H309.37C308.77 72 308.32 71.7333 308.02 71.2L304.57 64.5L298.22 71.2C297.986 71.4333 297.753 71.6333 297.52 71.8C297.286 71.9333 296.97 72 296.57 72H290.07Z" fill="#F53838"/>
</g>
<g clip-path="url(#clip0)" filter="url(#filter1_d)">
<path d="M68.896 88.978C68.841 88.978 68.785 88.979 68.73 88.976L54.088 88.512L54.57 86.183L54.73 86.178C56.142 86.143 57.289 85.053 57.333 83.695L57.338 83.501C57.371 82.473 56.762 81.52 55.787 81.08L55.644 81.015L55.976 79.403L56.144 79.409L70.524 79.864L72.287 24.212L55.941 23.694L56.984 19.516L59.248 19.588C59.314 19.588 59.367 19.54 59.365 19.477C59.368 19.443 59.355 19.414 59.336 19.392C59.315 19.369 59.285 19.356 59.254 19.354L57.041 19.284L58.176 14.745L71.067 15.155C72.053 15.184 72.965 15.598 73.641 16.317C74.318 17.037 74.673 17.976 74.642 18.96L72.537 85.404C72.475 87.383 70.874 88.954 68.896 88.978Z" fill="#F53838"/>
<path d="M54.57 88.133L68.743 88.58C68.792 88.58 68.841 88.583 68.889 88.582C70.656 88.56 72.083 87.16 72.14 85.392L74.243 18.948C74.271 18.07 73.956 17.232 73.351 16.591C72.748 15.948 71.933 15.58 71.054 15.552L58.483 15.153L57.546 18.903L59.267 18.957C59.404 18.962 59.533 19.019 59.624 19.12C59.719 19.221 59.765 19.351 59.763 19.489C59.755 19.763 59.533 19.983 59.256 19.985L57.29 19.923L56.446 23.312L72.693 23.825L72.689 24.024L70.906 80.272L56.296 79.809L56.096 80.788C57.132 81.322 57.772 82.375 57.736 83.515L57.728 83.71C57.68 85.226 56.451 86.454 54.896 86.566L54.57 88.133Z" fill="#F53838"/>
<path d="M70.91 80.273L56.188 79.802L56.659 77.514L61.83 65.652L60.645 45.776L55.261 27.218L55.274 27.166L56.238 23.29L72.698 23.813L72.69 24.011L70.91 80.273ZM56.671 79.424L70.524 79.865L72.288 24.198L56.548 23.699L55.673 27.212L61.034 45.709L62.231 65.724L62.214 65.765L57.035 77.634L56.671 79.424Z" fill="#F53838"/>
<path d="M36.765 80.65L33.827 24.269L49.574 23.447L48.936 27.418L55.823 45.397L58.693 65.232L54.507 77.528L54.246 79.74L54.08 79.748L36.765 80.65ZM34.243 24.646L37.14 80.234L53.894 79.366L54.123 77.437L58.287 65.194L55.438 45.498L48.528 27.461L48.537 27.408L49.1 23.87L34.243 24.646Z" fill="#F53838"/>
<path d="M39.145 89.299C37.226 89.255 35.646 87.717 35.547 85.799L32.087 19.413C32.035 18.43 32.372 17.484 33.031 16.749C33.692 16.017 34.596 15.584 35.58 15.532L51.288 14.713L50.538 19.331L47.266 19.502C47.236 19.503 47.208 19.517 47.187 19.541C47.166 19.563 47.156 19.595 47.156 19.626C47.161 19.688 47.208 19.734 47.27 19.737L50.498 19.568L49.81 23.817L49.649 23.826L34.243 24.629L37.14 80.236L54.503 79.331L54.284 81.122L54.05 81.039C53.71 80.918 53.357 80.867 52.992 80.888C52.277 80.926 51.619 81.231 51.139 81.742C50.661 82.257 50.416 82.914 50.451 83.599L50.463 83.792C50.536 85.196 51.803 86.305 53.268 86.229C53.291 86.229 53.313 86.225 53.333 86.221C53.361 86.214 53.391 86.211 53.421 86.207L53.666 86.182L53.377 88.567L53.211 88.574L39.421 89.297C39.329 89.299 39.237 89.301 39.145 89.299Z" fill="#F53838"/>
<path d="M31.7815 14.5438L22.8836 4.81812L22.5147 5.15562L31.4126 14.8813L31.7815 14.5438Z" fill="#F53838"/>
<path d="M28.8957 16.9793L19.2956 14.9932L19.1943 15.4828L28.7944 17.4689L28.8957 16.9793Z" fill="#F53838"/>
<path d="M80.81 53.7304L76.6162 46.8883L76.1899 47.1496L80.3837 53.9917L80.81 53.7304Z" fill="#F53838"/>
<path d="M78.585 19L78.089 18.937C78.526 15.534 75.999 12.395 72.456 11.939L72.52 11.443C76.336 11.933 79.057 15.323 78.585 19Z" fill="#F53838"/>
<path d="M33.2697 90.5131L33.0293 90.0735L24.4282 94.776L24.6685 95.2156L33.2697 90.5131Z" fill="#F53838"/>
</g>
<defs>
<filter id="filter0_d" x="86.2" y="35.25" width="239.57" height="45.25" filterUnits="userSpaceOnUse" color-interpolation-filters="sRGB">
<feFlood flood-opacity="0" result="BackgroundImageFix"/>
<feColorMatrix in="SourceAlpha" type="matrix" values="0 0 0 0 0 0 0 0 0 0 0 0 0 0 0 0 0 0 127 0"/>
<feOffset dy="4"/>
<feGaussianBlur stdDeviation="2"/>
<feColorMatrix type="matrix" values="0 0 0 0 0 0 0 0 0 0 0 0 0 0 0 0 0 0 0.25 0"/>
<feBlend mode="normal" in2="BackgroundImageFix" result="effect1_dropShadow"/>
<feBlend mode="normal" in="SourceGraphic" in2="effect1_dropShadow" result="shape"/>
</filter>
<filter id="filter1_d" x="-4" y="0" width="108" height="133" filterUnits="userSpaceOnUse" color-interpolation-filters="sRGB">
<feFlood flood-opacity="0" result="BackgroundImageFix"/>
<feColorMatrix in="SourceAlpha" type="matrix" values="0 0 0 0 0 0 0 0 0 0 0 0 0 0 0 0 0 0 127 0"/>
<feOffset dy="4"/>
<feGaussianBlur stdDeviation="2"/>
<feColorMatrix type="matrix" values="0 0 0 0 0 0 0 0 0 0 0 0 0 0 0 0 0 0 0.25 0"/>
<feBlend mode="normal" in2="BackgroundImageFix" result="effect1_dropShadow"/>
<feBlend mode="normal" in="SourceGraphic" in2="effect1_dropShadow" result="shape"/>
</filter>
<clipPath id="clip0">
<rect width="100" height="125" fill="white"/>
</clipPath>
</defs>
</svg>
